0
SECTION
2
HEADER
9
$LTSCALE
40
1.0
9
$LIMMIN
10
1430
20
0
9
$LIMMAX
10
5236
20
5452
9
$EXTMIN
10
1430
20
0
9
$EXTMAX
10
5236
20
5452
9
$SNAPMODE
70
0
9
$SNAPUNIT
10
1.0
20
1.0
9
$GRIDMODE
70
0
9
$GRIDUNIT
10
1.0
20
1.0
9
$ORTHOMODE
70
0
9
$TEXTSTYLE
7
txt
9
$CLAYER
8
1
9
$CECOLOR
62
7
9
$CELTYPE
6
CONTINUOUS
9
$PLINEWID
40
0.0
9
$OSMODE
70
0
9
$FILLMODE
70
1
9
$CHAMFERA
40
0.5
9
$CHAMFERB
40
0.5
9
$SCOORDS
70
1
9
$FILLETRAD
40
0.5
9
$INSBASE
10
0.0
20
0.0
9
$SPLFRAME
70
0
9
$SPLINESEGS
70
8
0
ENDSEC
0
SECTION
2
TABLES
0
TABLE
2
LTYPE
70
9
0
LTYPE
2
CONTINUOUS
70
64
3
Solid line
72
65
73
0
40
0.0
0
ENDTAB
0
TABLE
2
STYLE
70
1
0
STYLE
2
ROMANS
70
0
40
0.000
41
1.000
50
0.000
71
0
42
0.000
3
ROMANS
4

0
ENDTAB
0
TABLE
2
LAYER
70
10
0
LAYER
2
1
70
0
62
7
6
CONTINUOUS
0
LAYER
2
2
70
0
62
7
6
CONTINUOUS
0
LAYER
2
3
70
0
62
7
6
CONTINUOUS
0
LAYER
2
4
70
0
62
7
6
CONTINUOUS
0
LAYER
2
5
70
0
62
7
6
CONTINUOUS
0
LAYER
2
6
70
0
62
7
6
CONTINUOUS
0
LAYER
2
7
70
0
62
7
6
CONTINUOUS
0
LAYER
2
8
70
0
62
7
6
CONTINUOUS
0
LAYER
2
9
70
0
62
7
6
CONTINUOUS
0
LAYER
2
10
70
0
62
7
6
CONTINUOUS
0
ENDTAB
0
ENDSEC
0
SECTION
2
ENTITIES
0
POLYLINE
8
0
62
7
66
1
40
20
41
20
0
VERTEX
8
0
10
3535
20
5442
0
VERTEX
8
0
10
3016
20
5442
0
VERTEX
8
0
10
2880
20
4814
0
VERTEX
8
0
10
3671
20
4814
0
VERTEX
8
0
10
3535
20
5442
0
SEQEND
0
POLYLINE
8
0
62
7
66
1
40
20
41
20
0
VERTEX
8
0
10
4046
20
4278
0
VERTEX
8
0
10
3616
20
4631
0
VERTEX
8
0
10
2896
20
4635
0
VERTEX
8
0
10
2616
20
4425
0
VERTEX
8
0
10
2347
20
4194
0
VERTEX
8
0
10
2091
20
3944
0
VERTEX
8
0
10
1847
20
3674
0
VERTEX
8
0
10
1736
20
3540
0
VERTEX
8
0
10
1639
20
3415
0
VERTEX
8
0
10
1556
20
3301
0
VERTEX
8
0
10
1487
20
3196
0
VERTEX
8
0
10
1658
20
3128
0
VERTEX
8
0
10
1816
20
3061
0
VERTEX
8
0
10
1961
20
2998
0
VERTEX
8
0
10
2093
20
2936
0
VERTEX
8
0
10
2214
20
2878
0
VERTEX
8
0
10
2321
20
2821
0
VERTEX
8
0
10
2416
20
2767
0
VERTEX
8
0
10
2498
20
2714
0
VERTEX
8
0
10
2566
20
2668
0
VERTEX
8
0
10
2615
20
2628
0
VERTEX
8
0
10
2648
20
2595
0
VERTEX
8
0
10
2661
20
2569
0
VERTEX
8
0
10
2671
20
2559
0
VERTEX
8
0
10
2681
20
2525
0
VERTEX
8
0
10
2677
20
2490
0
VERTEX
8
0
10
2660
20
2447
0
VERTEX
8
0
10
2632
20
2399
0
VERTEX
8
0
10
2590
20
2344
0
VERTEX
8
0
10
2490
20
2210
0
VERTEX
8
0
10
2396
20
2063
0
VERTEX
8
0
10
2379
20
2031
0
VERTEX
8
0
10
2354
20
1987
0
VERTEX
8
0
10
2323
20
1932
0
VERTEX
8
0
10
2286
20
1864
0
VERTEX
8
0
10
2244
20
1787
0
VERTEX
8
0
10
2195
20
1697
0
VERTEX
8
0
10
2140
20
1596
0
VERTEX
8
0
10
2079
20
1483
0
VERTEX
8
0
10
1988
20
1301
0
VERTEX
8
0
10
1910
20
1118
0
VERTEX
8
0
10
1846
20
935
0
VERTEX
8
0
10
1795
20
750
0
VERTEX
8
0
10
1746
20
454
0
VERTEX
8
0
10
1440
20
451
0
VERTEX
8
0
10
1440
20
10
0
VERTEX
8
0
10
4470
20
17
0
VERTEX
8
0
10
4591
20
222
0
VERTEX
8
0
10
4617
20
290
0
VERTEX
8
0
10
4558
20
353
0
VERTEX
8
0
10
4326
20
478
0
VERTEX
8
0
10
4134
20
585
0
VERTEX
8
0
10
4108
20
638
0
VERTEX
8
0
10
4124
20
696
0
VERTEX
8
0
10
4255
20
862
0
VERTEX
8
0
10
4376
20
1019
0
VERTEX
8
0
10
4431
20
1092
0
VERTEX
8
0
10
4478
20
1156
0
VERTEX
8
0
10
4519
20
1214
0
VERTEX
8
0
10
4553
20
1264
0
VERTEX
8
0
10
4581
20
1308
0
VERTEX
8
0
10
4602
20
1343
0
VERTEX
8
0
10
4617
20
1372
0
VERTEX
8
0
10
4625
20
1393
0
VERTEX
8
0
10
4637
20
1462
0
VERTEX
8
0
10
4628
20
1525
0
VERTEX
8
0
10
4605
20
1570
0
VERTEX
8
0
10
4424
20
1855
0
VERTEX
8
0
10
4211
20
2154
0
VERTEX
8
0
10
3969
20
2467
0
VERTEX
8
0
10
3696
20
2794
0
VERTEX
8
0
10
3335
20
3199
0
VERTEX
8
0
10
3189
20
3353
0
VERTEX
8
0
10
2741
20
2919
0
VERTEX
8
0
10
2519
20
3141
0
VERTEX
8
0
10
2715
20
3348
0
VERTEX
8
0
10
2943
20
3553
0
VERTEX
8
0
10
3204
20
3757
0
VERTEX
8
0
10
3497
20
3958
0
VERTEX
8
0
10
3648
20
4054
0
VERTEX
8
0
10
3790
20
4139
0
VERTEX
8
0
10
3923
20
4214
0
VERTEX
8
0
10
4046
20
4278
0
SEQEND
0
POLYLINE
8
0
62
7
66
1
40
20
41
20
0
VERTEX
8
0
10
2666
20
499
0
VERTEX
8
0
10
2931
20
515
0
VERTEX
8
0
10
3126
20
549
0
VERTEX
8
0
10
3135
20
570
0
VERTEX
8
0
10
3148
20
598
0
VERTEX
8
0
10
3189
20
681
0
VERTEX
8
0
10
3217
20
736
0
VERTEX
8
0
10
3249
20
799
0
VERTEX
8
0
10
3287
20
871
0
VERTEX
8
0
10
3328
20
951
0
VERTEX
8
0
10
3500
20
1279
0
VERTEX
8
0
10
3512
20
1313
0
VERTEX
8
0
10
3517
20
1360
0
VERTEX
8
0
10
3510
20
1474
0
VERTEX
8
0
10
3472
20
1599
0
VERTEX
8
0
10
3416
20
1718
0
VERTEX
8
0
10
3349
20
1809
0
VERTEX
8
0
10
3288
20
1861
0
VERTEX
8
0
10
3225
20
1794
0
VERTEX
8
0
10
3162
20
1716
0
VERTEX
8
0
10
3101
20
1628
0
VERTEX
8
0
10
3041
20
1529
0
VERTEX
8
0
10
2984
20
1420
0
VERTEX
8
0
10
2928
20
1301
0
VERTEX
8
0
10
2873
20
1171
0
VERTEX
8
0
10
2820
20
1030
0
VERTEX
8
0
10
2731
20
753
0
VERTEX
8
0
10
2666
20
499
0
SEQEND
0
POLYLINE
8
0
62
7
66
1
40
20
41
20
0
VERTEX
8
0
10
4107
20
3967
0
VERTEX
8
0
10
4033
20
3949
0
VERTEX
8
0
10
3967
20
3921
0
VERTEX
8
0
10
3909
20
3885
0
VERTEX
8
0
10
3859
20
3839
0
VERTEX
8
0
10
3812
20
3773
0
VERTEX
8
0
10
3799
20
3745
0
VERTEX
8
0
10
3876
20
3670
0
VERTEX
8
0
10
3959
20
3584
0
VERTEX
8
0
10
4048
20
3489
0
VERTEX
8
0
10
4141
20
3384
0
VERTEX
8
0
10
4242
20
3271
0
VERTEX
8
0
10
4347
20
3146
0
VERTEX
8
0
10
4458
20
3013
0
VERTEX
8
0
10
4574
20
2869
0
VERTEX
8
0
10
4691
20
2726
0
VERTEX
8
0
10
4799
20
2589
0
VERTEX
8
0
10
4900
20
2459
0
VERTEX
8
0
10
4993
20
2335
0
VERTEX
8
0
10
5095
20
2451
0
VERTEX
8
0
10
5177
20
2595
0
VERTEX
8
0
10
5226
20
2733
0
VERTEX
8
0
10
5070
20
2918
0
VERTEX
8
0
10
4895
20
3118
0
VERTEX
8
0
10
4702
20
3333
0
VERTEX
8
0
10
4490
20
3562
0
VERTEX
8
0
10
4107
20
3967
0
SEQEND
0
ENDSEC
0
EOF
